<svg width="35" height="35" viewBox="0 0 35 35" fill="none" xmlns="http://www.w3.org/2000/svg">
<g clip-path="url(#clip0_5_6776)">
<path d="M10.4965 14.7507C10.4939 15.0991 10.512 15.4474 10.5506 15.7936L0.420269 29.6089C0.113471 30.0267 -0.033372 30.5408 0.00638578 31.0576C0.0461435 31.5745 0.269868 32.06 0.636961 32.4261L2.57365 34.3629C2.93965 34.73 3.42512 34.9538 3.94198 34.9935C4.45883 35.0333 4.97281 34.8865 5.39065 34.5796L19.2048 24.4485C19.551 24.4871 19.8992 24.5052 20.2476 24.5026C22.238 24.5028 24.1806 23.8931 25.8139 22.7554C25.8783 22.7097 25.9318 22.6504 25.9709 22.5818C26.0099 22.5131 26.0335 22.4368 26.04 22.3581C26.0464 22.2794 26.0356 22.2002 26.0082 22.1261C25.9809 22.052 25.9377 21.9848 25.8816 21.9292L13.0697 9.11625C13.0141 9.06019 12.9469 9.01697 12.8728 8.98961C12.7987 8.96225 12.7196 8.95141 12.6409 8.95787C12.5622 8.96432 12.4858 8.9879 12.4172 9.02696C12.3485 9.06601 12.2893 9.1196 12.2435 9.18397C11.106 10.8174 10.4963 12.7602 10.4965 14.7507ZM12.8936 23.6493L10.185 26.3582C9.97787 26.5585 9.70107 26.6704 9.413 26.6704C9.12492 26.6704 8.84812 26.5585 8.64103 26.3582C8.43758 26.1528 8.32344 25.8753 8.32344 25.5862C8.32344 25.297 8.43758 25.0196 8.64103 24.8142L11.3497 22.1053C11.5602 21.9325 11.8274 21.8442 12.0995 21.8576C12.3715 21.8709 12.6288 21.985 12.8213 22.1776C13.0139 22.3702 13.128 22.6275 13.1413 22.8995C13.1547 23.1715 13.0664 23.4388 12.8936 23.6493Z" fill="white"/>
<path d="M27.2926 20.293C27.6831 20.6835 28.3208 20.6864 28.6699 20.2585C29.2784 19.5128 29.776 18.6809 30.1456 17.7885C30.6431 16.5874 30.8992 15.3001 30.8992 14.0001C30.8992 12.7001 30.6431 11.4128 30.1456 10.2117C29.6481 9.01065 28.9189 7.91934 27.9997 7.00008C27.0804 6.08083 25.9891 5.35164 24.7881 4.85414C23.587 4.35665 22.2997 4.10059 20.9997 4.10059C19.6997 4.10059 18.4124 4.35665 17.2113 4.85415C16.3189 5.22381 15.487 5.72141 14.7413 6.32986C14.3134 6.67901 14.3163 7.31667 14.7068 7.70719L20.9997 14.0001L27.2926 20.293Z" fill="#FFF8C4"/>
</g>
<defs>
<clipPath id="clip0_5_6776">
<rect width="35" height="35" fill="white"/>
</clipPath>
</defs>
</svg>
