<svg width="168" height="30" viewBox="0 0 168 30" fill="none" xmlns="http://www.w3.org/2000/svg">
<mask id="mask0_5_6911" style="mask-type:luminance" maskUnits="userSpaceOnUse" x="0" y="0" width="168" height="30">
<path d="M168 0H0V30H168V0Z" fill="white"/>
</mask>
<g mask="url(#mask0_5_6911)">
<path d="M30 15C30 6.71573 23.2843 0 15 0C6.71573 0 0 6.71573 0 15C0 23.2843 6.71573 30 15 30C23.2843 30 30 23.2843 30 15Z" fill="#E783B5"/>
<path d="M18.4247 15.912L18.8236 13.377H16.3661V11.729C16.3661 11.036 16.7092 10.359 17.8063 10.359H18.9393V8.20003C18.2795 8.09503 17.6128 8.03803 16.9446 8.03003C14.9219 8.03003 13.6014 9.24603 13.6014 11.444V13.377H11.3594V15.912H13.6014V22.042H16.3661V15.912H18.4247Z" fill="white"/>
<path d="M76 15C76 6.71573 69.2843 0 61 0C52.7157 0 46 6.71573 46 15C46 23.2843 52.7157 30 61 30C69.2843 30 76 23.2843 76 15Z" fill="#E783B5"/>
<path d="M60.9139 23.34C56.2769 23.34 52.5039 19.566 52.5039 14.93C52.5039 10.294 56.2769 6.52002 60.9139 6.52002C65.5499 6.52002 69.3229 10.294 69.3229 14.93C69.3229 19.566 65.5499 23.34 60.9139 23.34ZM60.9139 7.87701C57.0229 7.87701 53.8599 11.04 53.8599 14.93C53.8599 18.82 57.0229 21.983 60.9139 21.983C64.8039 21.983 67.9669 18.82 67.9669 14.93C67.9669 11.04 64.8039 7.87701 60.9139 7.87701Z" fill="white"/>
<path d="M58.4716 14.1031C56.8816 14.1031 55.1616 13.8671 53.3276 13.3891C52.9646 13.2941 52.7476 12.9251 52.8426 12.5621C52.9376 12.1981 53.3056 11.9811 53.6696 12.0761C59.2256 13.5191 63.5736 12.6051 66.2436 9.4371C66.4846 9.1521 66.9136 9.1141 67.1986 9.3551C67.4856 9.5971 67.5206 10.0251 67.2796 10.3101C65.1606 12.8251 62.1656 14.1031 58.4716 14.1031Z" fill="white"/>
<path d="M55.081 20.6839C54.924 20.6839 54.769 20.6289 54.642 20.5209C54.357 20.2769 54.324 19.8479 54.566 19.5629C58.532 14.9269 63.664 13.8259 68.648 16.5469C68.976 16.7259 69.098 17.1379 68.919 17.4659C68.74 17.7949 68.328 17.9169 67.999 17.7379C62.015 14.4739 57.661 18.0329 55.597 20.4479C55.464 20.6019 55.274 20.6839 55.081 20.6839Z" fill="white"/>
<path d="M63.135 23.014C63.111 23.014 63.086 23.014 63.062 23.012C62.69 22.971 62.422 22.637 62.462 22.263C62.991 17.412 61.744 12.521 58.757 7.72002C58.559 7.40202 58.656 6.98401 58.974 6.78601C59.291 6.58801 59.709 6.68602 59.907 7.00302C63.059 12.068 64.372 17.252 63.811 22.412C63.77 22.759 63.477 23.014 63.135 23.014Z" fill="white"/>
<path d="M122 15C122 6.71573 115.284 0 107 0C98.7157 0 92 6.71573 92 15C92 23.2843 98.7157 30 107 30C115.284 30 122 23.2843 122 15Z" fill="#E783B5"/>
<path d="M104.67 15.036C104.67 13.746 105.715 12.7 107.004 12.7C108.294 12.7 109.339 13.746 109.339 15.036C109.339 16.326 108.294 17.371 107.004 17.371C105.715 17.371 104.67 16.326 104.67 15.036ZM103.408 15.036C103.408 17.023 105.018 18.633 107.004 18.633C108.991 18.633 110.601 17.023 110.601 15.036C110.601 13.049 108.991 11.438 107.004 11.438C105.018 11.438 103.408 13.049 103.408 15.036ZM109.903 11.296C109.903 11.462 109.952 11.624 110.044 11.763C110.136 11.901 110.268 12.009 110.421 12.072C110.575 12.136 110.744 12.153 110.907 12.12C111.07 12.088 111.22 12.008 111.337 11.891C111.455 11.773 111.535 11.623 111.567 11.46C111.6 11.297 111.583 11.128 111.52 10.974C111.456 10.821 111.349 10.689 111.21 10.597C111.072 10.505 110.91 10.455 110.743 10.455C110.52 10.455 110.307 10.544 110.149 10.701C109.991 10.859 109.903 11.073 109.903 11.296ZM104.175 20.739C103.492 20.708 103.12 20.594 102.874 20.498C102.547 20.37 102.313 20.219 102.068 19.974C101.823 19.729 101.671 19.495 101.544 19.168C101.448 18.922 101.334 18.55 101.303 17.867C101.269 17.129 101.263 16.907 101.263 15.036C101.263 13.165 101.27 12.944 101.303 12.204C101.334 11.521 101.449 11.151 101.544 10.903C101.672 10.576 101.823 10.343 102.068 10.097C102.313 9.85203 102.546 9.70003 102.874 9.57303C103.12 9.47703 103.492 9.36303 104.175 9.33203C104.913 9.29803 105.135 9.29204 107.004 9.29204C108.874 9.29204 109.096 9.29903 109.835 9.33203C110.518 9.36403 110.888 9.47803 111.135 9.57303C111.462 9.70003 111.696 9.85203 111.941 10.097C112.186 10.343 112.338 10.576 112.465 10.903C112.561 11.15 112.675 11.521 112.706 12.204C112.74 12.944 112.747 13.165 112.747 15.036C112.747 16.907 112.74 17.128 112.706 17.867C112.675 18.55 112.561 18.922 112.465 19.168C112.338 19.495 112.186 19.729 111.941 19.974C111.696 20.218 111.462 20.37 111.135 20.498C110.889 20.594 110.518 20.708 109.835 20.739C109.096 20.773 108.875 20.779 107.004 20.779C105.134 20.779 104.913 20.773 104.175 20.739ZM104.117 8.07204C103.371 8.10604 102.861 8.22403 102.416 8.39703C101.956 8.57603 101.565 8.81602 101.176 9.20602C100.786 9.59502 100.547 9.98604 100.368 10.447C100.195 10.892 100.076 11.401 100.042 12.147C100.008 12.894 100 13.133 100 15.036C100 16.938 100.008 17.177 100.042 17.924C100.076 18.67 100.195 19.18 100.368 19.625C100.547 20.086 100.786 20.477 101.176 20.866C101.565 21.255 101.956 21.495 102.416 21.674C102.862 21.847 103.371 21.966 104.117 22C104.864 22.034 105.102 22.042 107.004 22.042C108.906 22.042 109.145 22.034 109.892 22C110.638 21.966 111.147 21.847 111.592 21.674C112.053 21.495 112.443 21.255 112.833 20.866C113.223 20.477 113.461 20.086 113.641 19.625C113.814 19.18 113.933 18.67 113.966 17.924C114 17.177 114.008 16.938 114.008 15.036C114.008 13.133 114 12.894 113.966 12.147C113.932 11.401 113.814 10.892 113.641 10.447C113.461 9.98604 113.222 9.59502 112.833 9.20602C112.444 8.81602 112.053 8.57603 111.593 8.39703C111.147 8.22403 110.638 8.10504 109.892 8.07204C109.146 8.03804 108.907 8.03003 107.005 8.03003C105.103 8.03003 104.864 8.03704 104.117 8.07204Z" fill="white"/>
<path d="M168 15C168 6.71573 161.284 0 153 0C144.716 0 138 6.71573 138 15C138 23.2843 144.716 30 153 30C161.284 30 168 23.2843 168 15Z" fill="#E783B5"/>
<path d="M159.949 10.5669C159.487 10.7659 159.001 10.9049 158.503 10.9799C158.736 10.9399 159.078 10.5209 159.215 10.3509C159.422 10.0949 159.58 9.80292 159.68 9.48892C159.68 9.46592 159.703 9.43292 159.68 9.41592C159.668 9.40992 159.655 9.40593 159.642 9.40593C159.629 9.40593 159.615 9.40992 159.604 9.41592C159.063 9.70892 158.488 9.93192 157.892 10.0809C157.871 10.0879 157.849 10.0879 157.828 10.0829C157.807 10.0779 157.787 10.0669 157.772 10.0509C157.726 9.99592 157.676 9.94393 157.622 9.89493C157.379 9.67693 157.103 9.49792 156.805 9.36592C156.402 9.20092 155.966 9.12893 155.531 9.15593C155.109 9.18293 154.698 9.29592 154.321 9.48892C153.951 9.69192 153.625 9.96892 153.364 10.3009C153.089 10.6429 152.891 11.0399 152.782 11.4659C152.693 11.8699 152.682 12.2879 152.752 12.6969C152.752 12.7669 152.752 12.7769 152.692 12.7669C150.322 12.4169 148.377 11.5749 146.788 9.76892C146.718 9.68892 146.682 9.68892 146.625 9.76892C145.934 10.8199 146.27 12.4839 147.134 13.3059C147.25 13.4149 147.37 13.5219 147.496 13.6219C147.1 13.5939 146.713 13.4859 146.359 13.3059C146.293 13.2619 146.256 13.2859 146.253 13.3649C146.244 13.4759 146.244 13.5869 146.253 13.6979C146.322 14.2289 146.531 14.7309 146.858 15.1549C147.185 15.5779 147.619 15.9069 148.115 16.1069C148.235 16.1589 148.361 16.1979 148.49 16.2239C148.123 16.2959 147.747 16.3069 147.377 16.2569C147.297 16.2399 147.267 16.2839 147.297 16.3599C147.786 17.6909 148.846 18.0969 149.624 18.3229C149.73 18.3399 149.837 18.3399 149.956 18.3659C149.956 18.3659 149.956 18.3659 149.936 18.3859C149.707 18.8059 148.78 19.0879 148.354 19.2349C147.577 19.5139 146.749 19.6209 145.927 19.5479C145.798 19.5279 145.768 19.5309 145.734 19.5479C145.701 19.5639 145.734 19.6009 145.771 19.6339C145.937 19.7439 146.103 19.8399 146.276 19.9339C146.791 20.2149 147.335 20.4379 147.899 20.5989C150.817 21.4039 154.102 20.8119 156.293 18.6329C158.015 16.9219 158.62 14.5629 158.62 12.2009C158.62 12.1109 158.729 12.0579 158.793 12.0109C159.228 11.6709 159.612 11.2699 159.933 10.8199C159.988 10.7529 160.017 10.6679 160.013 10.5799C160.013 10.5309 160.013 10.5409 159.949 10.5669Z" fill="white"/>
</g>
</svg>
