<svg width="38" height="38" viewBox="0 0 38 38" fill="none" xmlns="http://www.w3.org/2000/svg">
<path d="M28.64 15.76C29.08 15.76 29.48 15.8 29.92 15.84V7.36001C29.92 4.68001 27.72 2.48 25.04 2.48H21.92V1.28C21.92 0.560001 21.36 0 20.64 0C19.92 0 19.36 0.560001 19.36 1.28V2.48H10.56V1.28C10.56 0.560001 10 0 9.28001 0C8.56001 0 8.00001 0.560001 8.00001 1.28V2.48H4.92001C2.2 2.48 0 4.68001 0 7.36001V24.08C0 26.76 2.2 28.96 4.88001 28.96H16.76C16.72 28.52 16.68 28.12 16.68 27.68C16.72 21.12 22.08 15.76 28.64 15.76ZM2.56 9.88001V7.40001C2.56 6.12001 3.6 5.04001 4.92001 5.04001H8.00001V6.24001C8.00001 6.96001 8.56001 7.52001 9.28001 7.52001C10 7.52001 10.56 6.96001 10.56 6.24001V5.04001H19.36V6.24001C19.36 6.96001 19.92 7.52001 20.64 7.52001C21.36 7.52001 21.92 6.96001 21.92 6.24001V5.04001H25.04C26.32 5.04001 27.36 6.08001 27.36 7.40001V9.88001H2.56Z" fill="white"/>
<path d="M28.6403 18.3201C23.4803 18.3201 19.2803 22.5201 19.2803 27.6801C19.2803 32.8401 23.4803 37.0401 28.6403 37.0401C33.8003 37.0401 38.0003 32.8401 38.0003 27.6801C38.0003 22.5201 33.8003 18.3201 28.6403 18.3201ZM32.1603 28.9601H28.6403C27.9203 28.9601 27.3603 28.4001 27.3603 27.6801V23.3201C27.3603 22.6001 27.9203 22.0401 28.6403 22.0401C29.3603 22.0401 29.9203 22.6001 29.9203 23.3201V26.4001H32.1603C32.8803 26.4001 33.4403 26.9601 33.4403 27.6801C33.4403 28.4001 32.8803 28.9601 32.1603 28.9601Z" fill="white" fill-opacity="0.8"/>
</svg>
