<svg width="37" height="24" viewBox="0 0 37 24" fill="none" xmlns="http://www.w3.org/2000/svg">
<g clip-path="url(#clip0_5_6751)">
<path d="M17.6862 16.7609C19.3629 15.6742 20.6365 14.0898 21.3184 12.2421C22.0004 10.3944 22.0545 8.38156 21.4728 6.50151C20.891 4.62147 19.7044 2.97408 18.0884 1.80316C16.4724 0.632243 14.5129 0 12.5 0C10.4871 0 8.52762 0.632243 6.91163 1.80316C5.29564 2.97408 4.10897 4.62147 3.52724 6.50151C2.94551 8.38156 2.99962 10.3944 3.68157 12.2421C4.36353 14.0898 5.63709 15.6742 7.31377 16.7609C4.45349 17.787 1.98396 19.6432 0.237385 22.0797C0.10096 22.2604 0.0197582 22.4751 0.00317173 22.699C-0.0134147 22.9228 0.035292 23.1467 0.143658 23.3447C0.250744 23.5414 0.410373 23.7061 0.605628 23.8215C0.800884 23.9368 1.02449 23.9985 1.25276 24H23.7472C23.9755 23.9985 24.1991 23.9368 24.3944 23.8215C24.5896 23.7061 24.7493 23.5414 24.8563 23.3447C24.9647 23.1467 25.0134 22.9228 24.9968 22.699C24.9802 22.4751 24.899 22.2604 24.7626 22.0797C23.016 19.6432 20.5465 17.787 17.6862 16.7609Z" fill="#F4F4F4"/>
<path d="M36.7764 22.0788C35.0147 19.6441 32.5342 17.7882 29.6637 16.7573C31.3506 15.6743 32.6332 14.0901 33.3207 12.2406C34.0082 10.3911 34.0639 8.37496 33.4795 6.49215C32.8951 4.60934 31.7018 2.96044 30.0772 1.79072C28.4525 0.621008 26.4833 -0.00701987 24.4624 5.9195e-05C23.5999 0.00451156 22.7416 0.117259 21.9087 0.33551C21.7131 0.392695 21.5343 0.494456 21.3872 0.632348C21.2401 0.770241 21.1288 0.940292 21.0627 1.12839C20.9997 1.31495 20.9839 1.51357 21.0166 1.70736C21.0493 1.90114 21.1297 2.08438 21.2507 2.24148C22.6677 4.09434 23.4817 6.31789 23.5878 8.6253C23.6939 10.9327 23.0872 13.2182 21.8461 15.1868C21.6869 15.4484 21.6325 15.7579 21.6932 16.0561C21.7539 16.3543 21.9255 16.6203 22.1751 16.8031C22.6451 17.1588 23.0994 17.5248 23.5381 17.9009L23.6164 17.9771C25.2887 19.4832 26.6453 21.2903 27.6114 23.2986C27.7105 23.5085 27.8696 23.6862 28.0695 23.8105C28.2695 23.9349 28.5021 24.0006 28.7394 24H35.7424C35.9713 23.9985 36.1955 23.9368 36.3914 23.8214C36.5872 23.706 36.7473 23.5411 36.8547 23.3443C36.9621 23.1467 37.0115 22.9241 36.9977 22.7009C36.9839 22.4777 36.9073 22.2625 36.7764 22.0788Z" fill="white"/>
</g>
<defs>
<clipPath id="clip0_5_6751">
<rect width="37" height="24" fill="white"/>
</clipPath>
</defs>
</svg>
