<svg width="24" height="23" viewBox="0 0 24 23" fill="none" xmlns="http://www.w3.org/2000/svg">
<path d="M22.2665 20.4485L15.5083 13.9604C18.2533 10.8432 17.9465 6.20578 14.813 3.44506C11.6795 0.684339 6.83377 0.782808 3.82477 3.66715C0.815765 6.5515 0.713765 11.1975 3.59302 14.2011C6.47227 17.2048 11.3098 17.4988 14.5618 14.8674L21.3605 21.3757C21.4858 21.4957 21.656 21.5633 21.8338 21.5633C22.0115 21.5669 22.1833 21.4993 22.307 21.3757C22.4368 21.2507 22.5058 21.0796 22.4983 20.9035C22.4908 20.7274 22.4068 20.5628 22.2665 20.4485ZM2.91877 9.08868C2.91877 5.61425 5.85727 2.79746 9.48127 2.79746C13.1053 2.79746 16.0438 5.61425 16.0438 9.08868C16.0438 12.5631 13.1053 15.3799 9.48127 15.3799C7.74052 15.3799 6.07177 14.7172 4.84102 13.537C3.61027 12.3568 2.91877 10.7569 2.91877 9.08868Z" fill="white"/>
</svg>
