<svg width="37" height="37" viewBox="0 0 37 37" fill="none" xmlns="http://www.w3.org/2000/svg">
<path d="M18.4998 0C8.27865 0 0 8.27865 0 18.4998C0 28.7209 8.27865 36.9996 18.4998 36.9996C28.7209 36.9996 36.9996 28.7209 36.9996 18.4998C36.9996 8.27865 28.7209 0 18.4998 0ZM18.4998 4.62495C20.026 4.62495 21.4598 5.04119 22.8472 5.50369C21.876 6.42868 20.766 7.26117 20.951 8.09366C21.136 8.92615 24.1422 8.6949 24.1422 10.4061C24.1422 11.6549 22.1997 12.0249 23.541 13.4586C25.1597 15.0773 20.581 17.991 20.4885 20.1185C20.3498 23.9572 24.3735 24.6047 27.5647 24.6047C29.5072 24.6047 30.0159 25.5297 29.8772 26.6397C27.3797 30.2009 23.1247 32.4209 18.4535 32.4209C16.6961 32.4209 15.0773 32.0046 13.5511 31.4034C14.5686 29.3684 12.2561 25.3447 10.0824 24.0497C9.01865 22.986 6.75242 23.4022 5.45744 22.8935C5.04119 21.6447 4.62495 20.396 4.5787 19.0085C4.71745 18.7773 4.94869 18.5923 5.31869 18.5923C6.19743 18.5923 7.39991 20.3498 8.04741 20.1648C8.8799 19.9798 4.62495 14.1061 6.61367 12.9498C7.53866 12.3949 9.38864 14.7536 8.7874 12.2099C8.2324 9.85114 10.4524 10.9149 11.8399 10.3136C13.0423 9.80489 13.9211 8.4174 12.4411 7.58491C12.1636 7.44616 11.8399 7.12242 11.4236 6.70617C13.5048 5.45744 15.9098 4.6712 18.4998 4.6712V4.62495ZM29.1834 9.66614C30.0159 10.6836 30.6634 11.7936 31.2184 12.9961V13.1348C31.0334 13.4586 30.7096 13.6436 30.2009 14.1523C28.9059 15.4473 28.7209 13.1811 28.1659 12.7186C27.5647 12.1636 25.391 12.8111 25.1135 12.1174C24.7897 11.2849 27.4259 10.1749 29.1834 9.66614Z" fill="white"/>
</svg>
